<svg id="flower" enable-background="new 0 0 300 300" height="512" viewBox="0 0 300 300" width="512" xmlns="http://www.w3.org/2000/svg"><g><path d="m159.295 206.651c-2.362 0-4.276 1.915-4.276 4.277s1.915 4.276 4.276 4.276 4.277-1.915 4.277-4.276-1.915-4.277-4.277-4.277z"/><path d="m174.29 42c2.209 0 4-1.791 4-4v-8c0-2.209-1.791-4-4-4s-4 1.791-4 4v8c0 2.209 1.791 4 4 4z"/><path d="m174.29 50c-2.209 0-4 1.791-4 4v8c0 2.209 1.791 4 4 4s4-1.791 4-4v-8c0-2.209-1.791-4-4-4z"/><path d="m158.29 50h8c2.209 0 4-1.791 4-4s-1.791-4-4-4h-8c-2.209 0-4 1.791-4 4s1.791 4 4 4z"/><path d="m182.29 50h8c2.209 0 4-1.791 4-4s-1.791-4-4-4h-8c-2.209 0-4 1.791-4 4s1.791 4 4 4z"/><path d="m232.29 230c-7.719 0-14 6.281-14 14s6.281 14 14 14 14-6.281 14-14-6.281-14-14-14zm0 20c-3.309 0-6-2.691-6-6s2.691-6 6-6 6 2.691 6 6-2.692 6-6 6z"/><path d="m147.572 110.927c0-2.362-1.915-4.277-4.277-4.277s-4.276 1.915-4.276 4.277 1.915 4.276 4.276 4.276 4.277-1.914 4.277-4.276z"/><path d="m159.295 222.651c-2.362 0-4.276 1.915-4.276 4.277s1.915 4.276 4.276 4.276 4.277-1.915 4.277-4.276-1.915-4.277-4.277-4.277z"/><path d="m132.077 74.922c0-12.725-10.354-23.078-23.078-23.078-2.229 0-4.379.334-6.419.927-3.934-7.66-11.763-12.558-20.473-12.558-8.896 0-16.618 5.068-20.469 12.46-1.964-.534-3.987-.83-6.057-.83-12.725 0-23.078 10.354-23.078 23.078 0 6.657 2.887 12.949 7.822 17.305-2.632 3.749-4.191 8.302-4.191 13.22 0 12.725 10.354 23.078 23.078 23.078 1.859 0 3.689-.279 5.482-.717 3.441 3.963 8.201 6.732 13.596 7.636v28.172c-.948-1.591-1.943-3.177-3.045-4.732-10.58-14.936-30.574-18.467-31.422-18.609-2.172-.369-4.232 1.096-4.607 3.264-.146.846-3.447 20.881 7.133 35.816 8.814 12.441 19.678 19.871 27.955 19.871 1.417 0 2.745-.246 3.986-.694v39.469h-12c-17.645 0-32 14.355-32 32 0 2.209 1.791 4 4 4s4-1.791 4-4c0-13.234 10.766-24 24-24h32c13.234 0 24 10.766 24 24 0 2.209 1.791 4 4 4s4-1.791 4-4c0-17.645-14.355-32-32-32h-12v-13.978c1.735 1.009 3.739 1.517 5.953 1.517 8.16 0 18.998-6.613 28.256-17.973h.002c11.563-14.189 9.617-34.4 9.529-35.254-.227-2.191-2.188-3.783-4.377-3.568-.855.086-21.041 2.262-32.607 16.449-2.629 3.227-4.89 6.597-6.756 9.96v-59.765c5.292-.975 9.951-3.754 13.322-7.682 1.877.485 3.789.819 5.757.819 12.725 0 23.078-10.354 23.078-23.078 0-4.933-1.57-9.5-4.217-13.255 4.897-4.341 7.847-10.625 7.847-17.27zm-55.953 115.836c-3.234 2.281-13.895-2.82-23.248-16.027-6.008-8.48-6.465-19.521-6.178-25.514 5.746 1.717 16.012 5.812 22.02 14.293 4.328 6.109 7.439 12.812 8.535 18.387.859 4.365.425 7.759-1.129 8.861zm13.369 17.262c1.469-5.49 5.025-11.967 9.754-17.771 6.568-8.057 17.086-11.451 22.936-12.775-.117 5.996-1.318 16.982-7.885 25.039h.002c-10.23 12.551-21.209 16.918-24.277 14.422-1.477-1.205-1.68-4.621-.53-8.915zm34.584-133.098c0 4.515-2.072 8.783-5.506 11.626-3.745-2.625-8.293-4.178-13.203-4.178-1.508 0-2.991.198-4.456.485-1.395-3.621-3.8-6.716-6.886-8.97.544-7.823 7.014-14.04 14.973-14.04 8.314-.001 15.078 6.762 15.078 15.077zm-53.787 15.078c0-6.617 5.383-12 12-12s12 5.383 12 12-5.383 12-12 12-12-5.383-12-12zm11.816-41.787c5.647 0 10.726 3.151 13.318 8.087-4.59 3.356-7.909 8.346-9.056 14.123-1.318-.274-2.68-.423-4.078-.423-4.154 0-8.012 1.277-11.213 3.453-2.554-2.766-4.048-6.329-4.048-10.162-.001-8.314 6.763-15.078 15.077-15.078zm-26.525 11.631c1.252 0 2.466.202 3.657.5-.124.967-.21 1.947-.21 2.947 0 6.031 2.329 11.697 6.445 15.972-.72 1.124-1.317 2.324-1.803 3.585-1.464-.287-2.948-.479-4.458-.479-4.881 0-9.406 1.533-13.138 4.13-3.463-2.855-5.571-7.054-5.571-11.577 0-8.315 6.763-15.078 15.078-15.078zm3.631 60.681c-8.314 0-15.078-6.764-15.078-15.078s6.764-15.078 15.078-15.078c1.072 0 2.12.151 3.153.372.101 2.696.72 5.249 1.79 7.572-3.277 4.086-5.127 9.135-5.127 14.396 0 2.714.496 5.309 1.36 7.73-.392.031-.781.086-1.176.086zm22.894 7.262c-8.314 0-15.078-6.764-15.078-15.078 0-2.745.747-5.415 2.137-7.739 3.522 3.092 8.081 5.03 13.125 5.03 4.915 0 9.362-1.851 12.848-4.802 1.311 2.27 2.046 4.841 2.046 7.511 0 8.314-6.763 15.078-15.078 15.078zm23.262-7.262c-.516 0-1.016-.093-1.523-.144.852-2.405 1.339-4.98 1.339-7.673 0-5.156-1.791-10.056-4.926-14.091 1.16-2.406 1.851-5.059 1.957-7.878 1.033-.219 2.081-.371 3.153-.371 8.314 0 15.078 6.764 15.078 15.078s-6.764 15.079-15.078 15.079z"/><path d="m238.95 123.949c-9.392-4.477-18.897-6.961-26.97-7.036.58-4.117.198-8.301-1.213-12.277-2.318-6.547-7.049-11.797-13.32-14.785-1.017-.484-2.059-.875-3.112-1.221l3.297-13.058c.541-2.141-.758-4.316-2.9-4.857-2.121-.521-4.314.756-4.857 2.9l-3.465 13.723c-2.97-.016-5.951.454-8.833 1.478-2.919 1.035-5.516 2.563-7.781 4.425l-11.346-8.485c-1.77-1.326-4.277-.959-5.6.807-1.322 1.77-.961 4.277.807 5.6l10.797 8.074c-4.216 6.544-5.492 14.886-2.696 22.773 1.391 3.927 3.703 7.385 6.698 10.203-6.24 5.125-12.236 13.199-16.747 22.664-4.375 9.18-6.881 18.645-7.057 26.652-.201 9.121 2.67 15.566 8.08 18.145 1.588.756 3.293 1.123 5.082 1.123 7.402 0 16.194-6.326 23.78-17.232 2.282 2.469 4.764 4.669 7.443 6.482 5.656 3.83 11.652 5.787 17.479 5.787 2.889 0 5.736-.482 8.48-1.455 8.277-2.934 14.469-9.936 17.434-19.715.92-3.034 1.456-6.237 1.684-9.521 5.476 1.567 10.568 2.383 15.02 2.383 8.457 0 14.688-2.775 17.24-8.135 4.949-10.395-6.84-25.631-27.424-35.442zm-12.793 40.408c-6.696 1.855-13.3 3.903-19.625 6.147-6.333 2.244-12.75 4.814-19.115 7.588-2.658-2.883-4.965-6.265-6.828-10.028 7.145-3.226 14.489-6.233 21.931-8.873 7.456-2.641 15.052-4.928 22.625-6.919.922 4.095 1.261 8.172 1.012 12.085zm-17.754-38.191c.58.393 1.138.834 1.698 1.268-5.684 1.634-11.36 3.391-16.934 5.369-5.492 1.944-10.973 4.149-16.543 6.527.164-.701.322-1.404.528-2.085 2.209-7.285 6.631-12.432 12.451-14.496 1.854-.656 3.793-.98 5.779-.98 4.254-.001 8.724 1.487 13.021 4.397zm-8.555 25.486c-7.533 2.67-14.961 5.713-22.198 8.969-1.235-4.09-1.889-8.208-1.956-12.206 6.868-3.05 13.477-5.711 20.146-8.074 6.81-2.415 13.77-4.56 20.713-6.438 2.473 3.153 4.566 6.771 6.186 10.736-7.664 2.026-15.349 4.339-22.891 7.013zm-19.601-55.297c4.535-1.607 9.42-1.352 13.758.719 4.342 2.068 7.615 5.703 9.223 10.236.911 2.569 1.212 5.262.925 7.923-5.824-1.909-11.729-1.974-17.222-.025-5.496 1.947-10.043 5.719-13.366 10.875-1.901-1.889-3.36-4.181-4.269-6.746-3.317-9.355 1.597-19.663 10.951-22.982zm-24.074 96.096c-2.33-1.109-3.646-5.127-3.523-10.746.152-6.9 2.383-15.207 6.281-23.387 2.529-5.307 5.623-10.149 8.9-14.112-.514 6.899.46 14.198 2.971 21.278 1.453 4.101 3.36 7.93 5.616 11.417-7.662 11.925-16.363 17.401-20.245 15.55zm56.15-5.611c-5.588 1.985-11.964.913-18.05-2.957 4.988-2.094 9.986-4.086 14.932-5.84 4.939-1.752 10.077-3.353 15.272-4.868-2.286 6.833-6.564 11.682-12.154 13.665zm46.826-30.891c-1.843 3.875-11.739 5.156-25.179.798-.432-4.208-1.366-8.464-2.848-12.644-2.456-6.932-6.187-13.099-10.792-18.08 4.873 1.029 10.059 2.709 15.178 5.149 17.897 8.529 25.833 20.18 23.641 24.777z"/></g></svg>