<svg id="communication" enable-background="new 0 0 300 300" height="512" viewBox="0 0 300 300" width="512" xmlns="http://www.w3.org/2000/svg"><g><path d="m52.598 145.512c-.93 5.443-1.402 11.025-1.402 16.592 0 2.209 1.791 4 4 4s4-1.791 4-4c0-5.115.434-10.244 1.289-15.244.371-2.178-1.092-4.244-3.27-4.617-2.194-.366-4.244 1.093-4.617 3.269z"/><path d="m64.34 132.066c1.703-4.797 3.832-9.482 6.332-13.926 1.084-1.926.4-4.363-1.525-5.447-1.926-1.088-4.367-.4-5.447 1.525-2.723 4.84-5.045 9.945-6.898 15.172-.738 2.082.35 4.369 2.432 5.107.443.156.895.232 1.338.232 1.645.001 3.186-1.024 3.768-2.663z"/><path d="m73.072 100.445c-1.395 1.715-1.133 4.234.58 5.627.742.604 1.635.896 2.521.896 1.162 0 2.316-.504 3.105-1.477 3.209-3.947 6.781-7.652 10.621-11.014 1.662-1.455 1.83-3.982.375-5.645s-3.984-1.83-5.645-.375c-4.176 3.66-8.067 7.693-11.557 11.988z"/><path d="m129.721 74.271c.271 0 .547-.027.822-.084 4.971-1.039 10.08-1.658 15.186-1.842 2.207-.08 3.932-1.934 3.854-4.143-.08-2.207-1.93-3.936-4.143-3.854-5.557.201-11.119.875-16.533 2.006-2.162.451-3.549 2.57-3.098 4.734.394 1.889 2.058 3.183 3.912 3.183z"/><path d="m100.145 86.008c.711 0 1.432-.189 2.082-.588 4.344-2.654 8.945-4.955 13.676-6.834 2.053-.814 3.057-3.141 2.24-5.193-.812-2.049-3.129-3.057-5.193-2.24-5.152 2.045-10.164 4.551-14.895 7.443-1.885 1.152-2.479 3.613-1.326 5.498.753 1.234 2.068 1.914 3.416 1.914z"/><path d="m245.428 178.693c.93-5.447 1.4-11.027 1.4-16.59 0-2.209-1.791-4-4-4s-4 1.791-4 4c0 5.111-.434 10.24-1.287 15.246-.371 2.176 1.094 4.244 3.271 4.615.227.039.453.057.676.057 1.914 0 3.606-1.376 3.94-3.328z"/><path d="m167.48 250.02c-4.971 1.039-10.08 1.658-15.186 1.842-2.207.08-3.932 1.934-3.854 4.143.078 2.158 1.854 3.855 3.996 3.855.049 0 .098 0 .146-.002 5.557-.201 11.119-.875 16.533-2.006 2.162-.451 3.549-2.57 3.098-4.734-.451-2.163-2.574-3.532-4.733-3.098z"/><path d="m195.799 238.789c-4.354 2.66-8.953 4.959-13.674 6.832-2.055.816-3.059 3.141-2.244 5.193.623 1.57 2.129 2.527 3.721 2.527.49 0 .99-.092 1.473-.283 5.145-2.041 10.156-4.547 14.896-7.445 1.885-1.152 2.479-3.613 1.326-5.498-1.151-1.886-3.615-2.482-5.498-1.326z"/><path d="m218.744 218.715c-3.209 3.947-6.781 7.652-10.621 11.014-1.662 1.455-1.83 3.982-.375 5.645.791.902 1.898 1.365 3.012 1.365.936 0 1.873-.326 2.633-.99 4.178-3.658 8.068-7.691 11.559-11.986 1.395-1.715 1.133-4.234-.58-5.627-1.716-1.394-4.235-1.136-5.628.579z"/><path d="m238.791 189.709c-2.088-.736-4.367.354-5.107 2.432-1.701 4.795-3.832 9.48-6.33 13.926-1.084 1.926-.4 4.365 1.525 5.447.621.35 1.293.514 1.957.514 1.398 0 2.756-.734 3.49-2.039 2.723-4.844 5.043-9.949 6.896-15.172.739-2.083-.349-4.37-2.431-5.108z"/><path d="m149.012 84.725c-42.666 0-77.379 34.713-77.379 77.379s34.713 77.379 77.379 77.379 77.379-34.713 77.379-77.379-34.713-77.379-77.379-77.379zm-40.818 21.401c.191.723.333 1.471.333 2.296 0 8.896 7.303 16.135 16.277 16.135 4.564 0 8.277 3.65 8.277 8.137s-3.713 8.137-8.277 8.137c-5.59 0-10.139 4.518-10.139 10.068v1.516c0 1.977-1.648 3.586-3.674 3.586h-31.05c1.797-20.473 12.527-38.375 28.253-49.875zm51.674 124.42c-.222-.75-.368-1.519-.368-2.318v-6.139c0-5.592-4.549-10.141-10.139-10.141-4.564 0-8.279-3.713-8.279-8.277s3.715-8.277 8.279-8.277h12.277c2.209 0 4-1.791 4-4v-2.738c0-4.748 3.863-8.609 8.611-8.609h41.703c-7.02 26.155-28.933 46.203-56.084 50.499zm57.726-58.499h-43.344c-8.734 0-15.918 6.775-16.564 15.348h-8.324c-8.977 0-16.279 7.303-16.279 16.277s7.303 16.277 16.279 16.277c1.18 0 2.139.961 2.139 2.141v6.139c0 1.047.133 2.086.334 3.111-.943.038-1.87.143-2.822.143-37.616 0-68.265-30.108-69.283-67.482h31.263c6.438 0 11.674-5.197 11.674-11.586v-1.516c0-1.141.959-2.068 2.139-2.068 8.975 0 16.277-7.238 16.277-16.137s-7.303-16.137-16.277-16.137c-4.564 0-8.277-3.648-8.277-8.389 0-2.26-.515-4.464-1.439-6.522 10.041-5.657 21.601-8.922 33.924-8.922 38.256 0 69.379 31.123 69.379 69.379-.002 3.385-.328 6.688-.799 9.944z"/><path d="m66 56c2.209 0 4-1.791 4-4v-8c0-2.209-1.791-4-4-4s-4 1.791-4 4v8c0 2.209 1.791 4 4 4z"/><path d="m70 76v-8c0-2.209-1.791-4-4-4s-4 1.791-4 4v8c0 2.209 1.791 4 4 4s4-1.791 4-4z"/><path d="m50 64h8c2.209 0 4-1.791 4-4s-1.791-4-4-4h-8c-2.209 0-4 1.791-4 4s1.791 4 4 4z"/><path d="m74 64h8c2.209 0 4-1.791 4-4s-1.791-4-4-4h-8c-2.209 0-4 1.791-4 4s1.791 4 4 4z"/><path d="m246.328 246.115c-2.362 0-4.276 1.915-4.276 4.276 0 2.362 1.914 4.277 4.276 4.277s4.276-1.915 4.276-4.277c.001-2.361-1.914-4.276-4.276-4.276z"/><path d="m162 72h56c2.209 0 4-1.791 4-4s-1.791-4-4-4h-56c-2.209 0-4 1.791-4 4s1.791 4 4 4z"/><path d="m134 252h-56c-2.209 0-4 1.791-4 4s1.791 4 4 4h56c2.209 0 4-1.791 4-4s-1.791-4-4-4z"/><path d="m78 240c0-10.792-6.147-20.161-15.115-24.833 4.315-3.671 7.115-9.072 7.115-15.167 0-11.027-8.973-20-20-20s-20 8.973-20 20c0 6.095 2.8 11.496 7.115 15.167-8.968 4.672-15.115 14.041-15.115 24.833 0 2.209 1.791 4 4 4h48c2.209 0 4-1.791 4-4zm-40-40c0-6.617 5.383-12 12-12s12 5.383 12 12-5.383 12-12 12-12-5.383-12-12zm-7.598 36c1.857-9.117 9.939-16 19.598-16s17.74 6.883 19.598 16z"/><path d="m262.885 99.167c4.315-3.671 7.115-9.072 7.115-15.167 0-11.027-8.973-20-20-20s-20 8.973-20 20c0 6.095 2.8 11.496 7.115 15.167-8.968 4.672-15.115 14.041-15.115 24.833 0 2.209 1.791 4 4 4h48c2.209 0 4-1.791 4-4 0-10.792-6.147-20.161-15.115-24.833zm-24.885-15.167c0-6.617 5.383-12 12-12s12 5.383 12 12-5.383 12-12 12-12-5.383-12-12zm-7.598 36c1.857-9.117 9.939-16 19.598-16s17.74 6.883 19.598 16z"/></g></svg>