<svg xmlns="http://www.w3.org/2000/svg" xmlns:xlink="http://www.w3.org/1999/xlink" version="1.1" x="0px" y="0px" viewBox="0 0 100 125" style="enable-background:new 0 0 100 100;" xml:space="preserve"><path d="M44.2,48.7l-8.7,5.5L28.3,47L21,54.2l-8.7-5.5v14.5l0,0c0,7.9,5.7,14.4,13.3,15.7v10.2c0,1.5,1.2,2.7,2.7,2.7  c1.5,0,2.7-1.2,2.7-2.7V78.9c7.5-1.3,13.3-7.8,13.3-15.7l0,0L44.2,48.7z M38.8,63.6c-0.2,5.6-4.9,10.2-10.5,10.2  c-5.8,0-10.6-4.7-10.6-10.6l0-3v-1.7l0.4,0.2l3.7,2.3l3.1-3.1l3.5-3.5l3.5,3.5l3.1,3.1l3.7-2.3l0.4-0.2l0,4.6L38.8,63.6z"/><path d="M90.6,48.7l-8.7,5.5L74.6,47l-7.3,7.3l-8.7-5.5v14.5l0,0c0,7.9,5.7,14.4,13.3,15.7v10.2c0,1.5,1.2,2.7,2.7,2.7  c1.5,0,2.7-1.2,2.7-2.7V78.9c7.5-1.3,13.3-7.8,13.3-15.7l0,0L90.6,48.7z M85.2,63.6c-0.2,5.6-4.9,10.2-10.5,10.2  c-5.8,0-10.6-4.7-10.6-10.6l0-3v-1.7l0.4,0.2l3.7,2.3l3.1-3.1l3.5-3.5l3.5,3.5l3.1,3.1l3.7-2.3l0.4-0.2l0,4.6L85.2,63.6z"/><path d="M66.2,33.7l-3.4-3.4c-0.6-1.3-1.6-2.5-2.9-3.3l1.4-1.4c1.1-1.1,1.7-2.6,1.7-4.2s-0.6-3.1-1.7-4.2c-2.3-2.3-6.1-2.3-8.4,0  l-1.4,1.4l-1.4-1.4c-2.3-2.3-6.1-2.3-8.4,0c-1.1,1.1-1.7,2.6-1.7,4.2s0.6,3.1,1.7,4.2l1,1c-2.5,1.4-4.1,4-4.1,7c0,4.4,3.6,8,8,8h8.8  c3.2,0,6-1.9,7.2-4.6L66.2,33.7z M58.1,20.5c0.3,0.3,0.4,0.6,0.4,1s-0.1,0.7-0.4,1l-3.2,3.2h-4l5.2-5.2  C56.7,19.9,57.6,19.9,58.1,20.5z M45,20.5c0.6-0.6,1.5-0.6,2,0l1.4,1.4l-2,2L45,22.5c-0.3-0.3-0.4-0.6-0.4-1S44.7,20.7,45,20.5z   M43.3,33.7c0-1.9,1.6-3.5,3.5-3.5h1.1v7h-1.1C44.8,37.1,43.3,35.6,43.3,33.7z M55.6,37.1h-1.1v-7h1.1c1.9,0,3.5,1.6,3.5,3.5  S57.5,37.1,55.6,37.1z"/><g><circle cx="11.5" cy="38.8" r="2.8"/></g><g><circle cx="24" cy="25.7" r="2.8"/></g><g><circle cx="15.1" cy="15" r="2.8"/></g><g><circle cx="74.6" cy="11" r="2.8"/></g><g><circle cx="27.5" cy="40.3" r="2.8"/></g><g><circle cx="89.2" cy="26.3" r="2.8"/></g><g><circle cx="83.6" cy="41.6" r="2.8"/></g><g><circle cx="71.8" cy="25.7" r="2.8"/></g><text x="0" y="115" fill="#000000" font-size="5px" font-weight="bold" font-family="'Helvetica Neue', Helvetica, Arial-Unicode, Arial, Sans-serif">Created by Monika</text><text x="0" y="120" fill="#000000" font-size="5px" font-weight="bold" font-family="'Helvetica Neue', Helvetica, Arial-Unicode, Arial, Sans-serif">from the Noun Project</text></svg>