<svg xmlns="http://www.w3.org/2000/svg" xmlns:xlink="http://www.w3.org/1999/xlink" version="1.1" x="0px" y="0px" viewBox="0 0 100 125" style="enable-background:new 0 0 100 100;" xml:space="preserve"><path d="M50.0214844,32.328125c-9.7441406,0-17.671875,7.9277344-17.671875,17.671875  c0,2.0380249,0.3643188,3.9882812,1.0020142,5.8114624c0.0108643,0.1946411,0.0827026,0.3666382,0.189209,0.5158691  c2.5524292,6.6239014,8.9681396,11.3445435,16.4806519,11.3445435c0.0002441,0,0.0005493-0.000061,0.0007935-0.000061  c0.000061,0,0.0001221,0.000061,0.0001831,0.000061c0.0001831,0,0.0003052-0.000061,0.0004883-0.000061  C59.7664795,67.6709595,67.6933594,59.7436523,67.6933594,50C67.6933594,40.2558594,59.765625,32.328125,50.0214844,32.328125z   M64.026001,43.0063477H58.5c-1.3075562-3.7631836-3.4349976-6.5655518-5.0422974-8.2866211  C58.0925903,35.7619019,61.9469604,38.8607178,64.026001,43.0063477z M34.3496094,50  c0-1.7473145,0.2998047-3.4229126,0.829834-4.9936523h5.7920532C40.5950317,46.5435791,40.3554688,48.2016602,40.3554688,50  c0,1.7025757,0.2329102,3.2814941,0.5971069,4.7578125h-5.8596191C34.6132202,53.2561035,34.3496094,51.6588135,34.3496094,50z   M42.3554688,50c0-1.8045044,0.2637939-3.4696045,0.6855469-4.9936523h5.9804688v9.7514648h-6.0067139  C42.6066284,53.2939453,42.3554688,51.706604,42.3554688,50z M56.3485107,43.0063477h-5.3270264v-7.8876953  C52.3485718,36.3718872,54.8130493,39.0783081,56.3485107,43.0063477z M49.0214844,35.2075195v7.7988281h-5.3057861  C45.2340088,39.187439,47.6556396,36.5041504,49.0214844,35.2075195z M49.0214844,56.7578125v7.734375  c-1.5462036-1.4835205-3.8666382-4.1361694-5.3225098-7.734375H49.0214844z M51.0214844,64.4805908v-7.7227783h5.3175049  C54.8799438,60.354126,52.5657959,62.9956665,51.0214844,64.4805908z M51.0214844,54.7578125v-9.7514648h5.9953613  C57.4302368,46.5288086,57.6865234,48.1948853,57.6865234,50c0,1.7072754-0.2592163,3.291748-0.6699829,4.7578125H51.0214844z   M59.0783081,45.0063477h5.7852173c0.5300293,1.5707397,0.829834,3.2463379,0.829834,4.9936523  c0,1.6588135-0.2636108,3.2561035-0.7433472,4.7578125h-5.8605347C59.4536743,53.2814941,59.6865234,51.7025757,59.6865234,50  C59.6865234,48.2017212,59.4500122,46.5435791,59.0783081,45.0063477z M46.6893311,34.6928711  c-1.6316528,1.7197266-3.8015137,4.5325928-5.1320801,8.3134766h-5.5402832  C38.1117554,38.8293457,42.0076904,35.7114258,46.6893311,34.6928711z M35.9031982,56.7578125h5.6472778  c1.3950806,3.8942261,3.7333984,6.8222046,5.5117798,8.625C42.1273193,64.4350586,38.0213623,61.1643066,35.9031982,56.7578125z   M52.9804077,65.3828125c1.7782593-1.8027954,4.1162109-4.7307129,5.5111694-8.625h5.6481934  C62.0215454,61.1643677,57.9154053,64.4351196,52.9804077,65.3828125z"/><path d="M88.6572266,24.390625c0-7.1826172-5.84375-13.0263672-13.0263672-13.0263672s-13.0263672,5.84375-13.0263672,13.0263672  s5.84375,13.0263672,13.0263672,13.0263672S88.6572266,31.5732422,88.6572266,24.390625z M69.0535889,33.2196655  c0.1217041-2.8015137,1.9521484-5.2025146,4.6573486-6.0238647c0.3847656-0.1171875,0.6630859-0.4545898,0.7041016-0.8554688  s-0.1630859-0.7871094-0.5166016-0.9799805c-1.2724609-0.6928711-2.0634766-2.0214844-2.0634766-3.4682617  c0-2.1757812,1.7705078-3.9462891,3.9462891-3.9462891s3.9462891,1.7705078,3.9462891,3.9462891  c0,1.4897461-0.828125,2.8364258-2.1611328,3.5151367c-0.3603516,0.1826172-0.5742188,0.5639648-0.5439453,0.9663086  s0.2998047,0.7470703,0.6826172,0.8740234c2.6132202,0.8659058,4.3826294,3.244812,4.5032349,5.9719238  c-1.8388062,1.3735352-4.1109009,2.1975098-6.5774536,2.1975098C73.1644287,35.4169922,70.892395,34.5930786,69.0535889,33.2196655z   M64.6044922,24.390625c0-6.0800781,4.9462891-11.0263672,11.0263672-11.0263672s11.0263672,4.9462891,11.0263672,11.0263672  c0,2.7363892-1.0078735,5.2376709-2.6640625,7.1672363c-0.5335083-2.2904663-1.9731445-4.270813-4.0068359-5.4621582  C81.0869141,25,81.7275391,23.5014648,81.7275391,21.8920898c0-3.2788086-2.6679688-5.9462891-5.9462891-5.9462891  s-5.9462891,2.6674805-5.9462891,5.9462891c0,1.5454102,0.5986328,3.0009766,1.6298828,4.0893555  c-2.1408081,1.1749268-3.6505737,3.201355-4.1970825,5.5755615C65.6119995,29.6276245,64.6044922,27.1265869,64.6044922,24.390625z"/><path d="M24.4121094,11.3642578c-7.1826172,0-13.0263672,5.84375-13.0263672,13.0263672s5.84375,13.0263672,13.0263672,13.0263672  s13.0263672-5.84375,13.0263672-13.0263672S31.5947266,11.3642578,24.4121094,11.3642578z M17.8339233,33.2189331  c0.1220703-2.8007812,1.9523315-5.2018433,4.6582642-6.0231323c0.3847656-0.1171875,0.6630859-0.4545898,0.7041016-0.8554688  s-0.1630859-0.7871094-0.5166016-0.9799805c-1.2724609-0.6928711-2.0634766-2.0214844-2.0634766-3.4682617  c0-2.1757812,1.7705078-3.9462891,3.9462681-3.9462891c2.1758022,0,3.94631,1.7705078,3.94631,3.9462891  c0,1.4892578-0.828125,2.8364258-2.1621094,3.5151367c-0.359375,0.1831055-0.5732422,0.5644531-0.5429688,0.9667969  s0.2998047,0.746582,0.6826172,0.8735352c2.6132202,0.8659058,4.3826294,3.244812,4.5032349,5.9719238  c-1.8388062,1.3735352-4.1109009,2.1975098-6.5774536,2.1975098C21.9452515,35.4169922,19.6728516,34.5927734,17.8339233,33.2189331  z M32.7744141,31.5578003c-0.5335083-2.2905884-1.9732666-4.2706909-4.0078125-5.4620972  c1.1015625-1.0961914,1.7421875-2.5947266,1.7421875-4.2036133c0-3.2788086-2.6679688-5.9462891-5.94631-5.9462891  c-3.2782993,0-5.9462681,2.6674805-5.9462681,5.9462891c0,1.5454102,0.5986328,3.0009766,1.6289062,4.0893555  c-2.1397705,1.1748047-3.6499023,3.2009277-4.1967773,5.5747681c-1.6553345-1.9293213-2.6625977-4.4299927-2.6625977-7.1655884  c0-6.0800781,4.9462891-11.0263672,11.0263672-11.0263672s11.0263672,4.9462891,11.0263672,11.0263672  C35.4384766,27.1270142,34.430603,29.6282959,32.7744141,31.5578003z"/><path d="M75.6308594,88.7412109c7.1826172,0,13.0263672-5.84375,13.0263672-13.0263672s-5.84375-13.0263672-13.0263672-13.0263672  s-13.0263672,5.84375-13.0263672,13.0263672S68.4482422,88.7412109,75.6308594,88.7412109z M69.0535889,84.5438843  c0.1217041-2.8015137,1.9521484-5.2025146,4.6573486-6.0238647c0.3847656-0.1171875,0.6630859-0.4545898,0.7041016-0.8554688  s-0.1630859-0.7871094-0.5166016-0.9799805c-1.2724609-0.6928711-2.0634766-2.0214844-2.0634766-3.4682617  c0-2.1757812,1.7705078-3.9462891,3.9462891-3.9462891s3.9462891,1.7705078,3.9462891,3.9462891  c0,1.4897461-0.828125,2.8364258-2.1611328,3.5151367c-0.3603516,0.1826172-0.5742188,0.5639648-0.5439453,0.9663086  s0.2998047,0.7470703,0.6826172,0.8740234c2.6132202,0.8659058,4.3826294,3.244812,4.5032349,5.9719238  c-1.8388062,1.3735352-4.1109009,2.1975098-6.5774536,2.1975098C73.1644287,86.7412109,70.892395,85.9172974,69.0535889,84.5438843z   M75.6308594,64.6884766c6.0800781,0,11.0263672,4.9462891,11.0263672,11.0263672  c0,2.7363892-1.0078735,5.2376709-2.6640625,7.1672363c-0.5335083-2.2904663-1.9731445-4.270813-4.0068359-5.4621582  c1.1005859-1.0957031,1.7412109-2.5942383,1.7412109-4.2036133c0-3.2788086-2.6679688-5.9462891-5.9462891-5.9462891  s-5.9462891,2.6674805-5.9462891,5.9462891c0,1.5454102,0.5986328,3.0009766,1.6298828,4.0893555  c-2.1408081,1.1749268-3.6505737,3.201355-4.1970825,5.5755615c-1.6557617-1.9293823-2.663269-4.4304199-2.663269-7.1663818  C64.6044922,69.6347656,69.5507812,64.6884766,75.6308594,64.6884766z"/><path d="M24.4121094,88.7412109c7.1826172,0,13.0263672-5.84375,13.0263672-13.0263672s-5.84375-13.0263672-13.0263672-13.0263672  s-13.0263672,5.84375-13.0263672,13.0263672S17.2294922,88.7412109,24.4121094,88.7412109z M17.8339233,84.5431519  c0.1220703-2.8007812,1.9523315-5.2018433,4.6582642-6.0231323c0.3847656-0.1171875,0.6630859-0.4545898,0.7041016-0.8554688  s-0.1630859-0.7871094-0.5166016-0.9799805c-1.2724609-0.6928711-2.0634766-2.0214844-2.0634766-3.4682617  c0-2.1757812,1.7705078-3.9462891,3.9462681-3.9462891c2.1758022,0,3.94631,1.7705078,3.94631,3.9462891  c0,1.4892578-0.828125,2.8364258-2.1621094,3.5151367c-0.359375,0.1831055-0.5732422,0.5644531-0.5429688,0.9667969  s0.2998047,0.746582,0.6826172,0.8735352c2.6132202,0.8659058,4.3826294,3.244812,4.5032349,5.9719238  c-1.8388062,1.3735352-4.1109009,2.1975098-6.5774536,2.1975098C21.9452515,86.7412109,19.6728516,85.9169922,17.8339233,84.5431519  z M24.4121094,64.6884766c6.0800781,0,11.0263672,4.9462891,11.0263672,11.0263672  c0,2.7363892-1.0078735,5.2376709-2.6640625,7.1671753c-0.5335083-2.2905884-1.9732666-4.2706909-4.0078125-5.4620972  c1.1015625-1.0961914,1.7421875-2.5947266,1.7421875-4.2036133c0-3.2788086-2.6679688-5.9462891-5.94631-5.9462891  c-3.2782993,0-5.9462681,2.6674805-5.9462681,5.9462891c0,1.5454102,0.5986328,3.0009766,1.6289062,4.0893555  c-2.1397705,1.1748047-3.6499023,3.2009277-4.1967773,5.5747681c-1.6553345-1.9293213-2.6625977-4.4299927-2.6625977-7.1655884  C13.3857422,69.6347656,18.3320312,64.6884766,24.4121094,64.6884766z"/><path d="M62.1855469,12.831543C58.3769531,10.9526367,54.2841797,10,50.0214844,10s-8.3554688,0.9526367-12.1640625,2.831543  c-0.4951172,0.2446289-0.6992188,0.8442383-0.4541016,1.3393555c0.2441406,0.4956055,0.84375,0.6987305,1.3388672,0.4545898  C42.2734375,12.8833008,46.0683594,12,50.0214844,12s7.7480469,0.8833008,11.2792969,2.6254883  c0.1425781,0.0698242,0.2929688,0.1030273,0.4414062,0.1030273c0.3691406,0,0.7236328-0.2045898,0.8974609-0.5576172  C62.8847656,13.6757812,62.6806641,13.0761719,62.1855469,12.831543z"/><path d="M12.8535156,62.1640625c0.1738281,0.3530273,0.5283203,0.5576172,0.8974609,0.5576172  c0.1484375,0,0.2988281-0.0332031,0.4414062-0.1030273c0.4950953-0.2446289,0.6992188-0.8442383,0.4541016-1.3393555  c-1.7421875-3.5307617-2.625-7.3256836-2.625-11.2792969s0.8828125-7.7485352,2.625-11.2792969  c0.2451172-0.4951172,0.0409937-1.0947266-0.4541016-1.3393555c-0.4970703-0.2421875-1.0947266-0.0400391-1.3388672,0.4545898  C10.9746094,41.6445312,10.0214844,45.7368164,10.0214844,50S10.9746094,58.3554688,12.8535156,62.1640625z"/><path d="M37.8574219,87.168457C41.6660156,89.0473633,45.7587891,90,50.0214844,90s8.3554688-0.9526367,12.1640625-2.831543  c0.4951172-0.2446289,0.6992188-0.8442383,0.4541016-1.3393555c-0.2441406-0.4951172-0.8427734-0.6972656-1.3388672-0.4545898  C57.7695312,87.1166992,53.9746094,88,50.0214844,88s-7.7480469-0.8833008-11.2792969-2.6254883  c-0.4960938-0.2416992-1.0947266-0.0400391-1.3388672,0.4545898C37.1582031,86.3242188,37.3623047,86.9238281,37.8574219,87.168457z  "/><path d="M87.1894531,37.8359375c-0.2431641-0.4946289-0.8417969-0.6972656-1.3388672-0.4545898  c-0.4951172,0.2446289-0.6992188,0.8442383-0.4541016,1.3393555c1.7421875,3.5307617,2.625,7.3256836,2.625,11.2792969  s-0.8828125,7.7485352-2.625,11.2792969c-0.2451172,0.4951172-0.0410156,1.0947266,0.4541016,1.3393555  c0.1425781,0.0698242,0.2929688,0.1030273,0.4414062,0.1030273c0.3691406,0,0.7236328-0.2045898,0.8974609-0.5576172  C89.0683594,58.3554688,90.0214844,54.2631836,90.0214844,50S89.0683594,41.6445312,87.1894531,37.8359375z"/><text x="0" y="115" fill="#000000" font-size="5px" font-weight="bold" font-family="'Helvetica Neue', Helvetica, Arial-Unicode, Arial, Sans-serif">Created by Made x Made</text><text x="0" y="120" fill="#000000" font-size="5px" font-weight="bold" font-family="'Helvetica Neue', Helvetica, Arial-Unicode, Arial, Sans-serif">from the Noun Project</text></svg>