<?xml version="1.0" encoding="iso-8859-1"?>
<!-- Generator: Adobe Illustrator 19.0.0, SVG Export Plug-In . SVG Version: 6.00 Build 0)  -->
<svg version="1.1" id="Capa_1" xmlns="http://www.w3.org/2000/svg" xmlns:xlink="http://www.w3.org/1999/xlink" x="0px" y="0px"
	 viewBox="0 0 197.975 197.975" style="enable-background:new 0 0 197.975 197.975;" xml:space="preserve">
<g>
	<g>
		<path d="M195.999,51.518L100.426,7.145c-0.913-0.423-1.964-0.423-2.876,0L1.976,51.518c-1.452,0.674-2.241,2.268-1.896,3.831
			c0.346,1.565,1.732,2.678,3.333,2.678H194.56c1.601,0,2.987-1.113,3.335-2.678C198.24,53.787,197.451,52.193,195.999,51.518z
			 M18.871,51.201l80.116-37.197l80.116,37.197H18.871z"/>
	</g>
</g>
<g>
	<g>
		<path d="M197.33,52.619c-0.642-0.891-1.673-1.418-2.77-1.418H3.414c-1.097,0-2.127,0.526-2.768,1.417s-0.816,2.034-0.469,3.075
			l6.827,20.48c0.464,1.394,1.768,2.335,3.238,2.335h177.493c1.469,0,2.773-0.94,3.239-2.333l6.827-20.48
			C198.146,54.654,197.972,53.51,197.33,52.619z M185.272,71.681H12.699L8.15,58.028h181.675L185.272,71.681z"/>
	</g>
</g>
<g>
	<g>
		<path d="M177.493,71.681H20.48c-1.884,0-3.413,1.529-3.413,3.413v13.653c0,1.884,1.529,3.413,3.413,3.413h157.013
			c1.884,0,3.413-1.529,3.413-3.413V75.094C180.907,73.21,179.378,71.681,177.493,71.681z M174.08,85.334H23.894v-6.827H174.08
			V85.334z"/>
	</g>
</g>
<g>
	<g>
		<path d="M177.493,163.841H20.48c-1.884,0-3.413,1.529-3.413,3.413v10.24c0,1.884,1.529,3.413,3.413,3.413h157.013
			c1.884,0,3.413-1.529,3.413-3.413v-10.24C180.907,165.37,179.378,163.841,177.493,163.841z M174.08,174.081H23.894v-3.413H174.08
			V174.081z"/>
	</g>
</g>
<g>
	<g>
		<path d="M187.734,174.081H10.24c-1.884,0-3.413,1.529-3.413,3.413v10.24c0,1.884,1.529,3.413,3.413,3.413h177.493
			c1.884,0,3.413-1.529,3.413-3.413v-10.24C191.147,175.61,189.618,174.081,187.734,174.081z M184.32,184.321H13.654v-3.413H184.32
			V184.321z"/>
	</g>
</g>
<g>
	<g>
		<path d="M44.374,85.334H27.307c-1.884,0-3.413,1.529-3.413,3.413v78.507c0,1.884,1.529,3.413,3.413,3.413h17.067
			c1.884,0,3.413-1.529,3.413-3.413V88.748C47.787,86.864,46.258,85.334,44.374,85.334z M40.96,163.841H30.72v-71.68h10.24V163.841z
			"/>
	</g>
</g>
<g>
	<g>
		<path d="M81.92,85.334H64.854c-1.884,0-3.413,1.529-3.413,3.413v78.507c0,1.884,1.529,3.413,3.413,3.413H81.92
			c1.884,0,3.413-1.529,3.413-3.413V88.748C85.334,86.864,83.804,85.334,81.92,85.334z M78.507,163.841h-10.24v-71.68h10.24V163.841
			z"/>
	</g>
</g>
<g>
	<g>
		<path d="M133.12,85.334h-17.067c-1.884,0-3.413,1.529-3.413,3.413v78.507c0,1.884,1.529,3.413,3.413,3.413h17.067
			c1.884,0,3.413-1.529,3.413-3.413V88.748C136.534,86.864,135.004,85.334,133.12,85.334z M129.707,163.841h-10.24v-71.68h10.24
			V163.841z"/>
	</g>
</g>
<g>
	<g>
		<path d="M170.667,85.334H153.6c-1.884,0-3.413,1.529-3.413,3.413v78.507c0,1.884,1.529,3.413,3.413,3.413h17.067
			c1.884,0,3.413-1.529,3.413-3.413V88.748C174.08,86.864,172.551,85.334,170.667,85.334z M167.254,163.841h-10.24v-71.68h10.24
			V163.841z"/>
	</g>
</g>
<g>
</g>
<g>
</g>
<g>
</g>
<g>
</g>
<g>
</g>
<g>
</g>
<g>
</g>
<g>
</g>
<g>
</g>
<g>
</g>
<g>
</g>
<g>
</g>
<g>
</g>
<g>
</g>
<g>
</g>
</svg>
